<?xml version="1.0" encoding="utf-8"?>
<!-- Generator: Adobe Illustrator 26.0.2, SVG Export Plug-In . SVG Version: 6.00 Build 0)  -->
<svg version="1.1" id="Layer_1" xmlns="http://www.w3.org/2000/svg" xmlns:xlink="http://www.w3.org/1999/xlink" x="0px" y="0px"
	 viewBox="0 0 100 20" style="enable-background:new 0 0 100 20;" xml:space="preserve">
<style type="text/css">
	.st0{fill:#02723B;}
</style>
<g>
	<g>
		<path d="M9.17,14.09l-2.33-8.4h0.67c0.56,2.02,1.83,6.66,2.03,7.64h0.01c0.16-0.78,1.54-5.42,2.12-7.64h0.72
			c0.55,2.05,1.9,6.98,2.03,7.63h0.01c0.26-1.19,1.67-5.62,2.24-7.63h0.66l-2.57,8.4h-0.74c-0.55-1.98-1.86-6.84-2-7.56h-0.01
			C11.79,7.63,10.5,12,9.9,14.09H9.17z"/>
		<path d="M19.21,5.25V9.1c0.34-0.62,0.92-1.15,1.98-1.15c0.85,0,2.03,0.43,2.03,2.33v3.81h-0.6V10.4c0-1.19-0.54-1.86-1.54-1.86
			c-1.19,0-1.87,0.73-1.87,2.21v3.35h-0.6V5.25H19.21z"/>
		<path d="M29.3,12.95c0,0.53,0.05,0.95,0.08,1.14h-0.58c-0.05-0.14-0.08-0.41-0.11-0.92c-0.2,0.44-0.73,1.07-1.97,1.07
			c-1.39,0-1.99-0.9-1.99-1.8c0-1.32,1.02-1.92,2.82-1.92c0.5,0,0.9,0,1.14,0V9.9c0-0.6-0.18-1.4-1.55-1.4
			c-1.21,0-1.39,0.64-1.52,1.13h-0.6c0.07-0.66,0.48-1.68,2.13-1.68c1.37,0,2.13,0.58,2.13,1.9V12.95z M28.71,11.03
			c-0.23,0-0.78,0-1.18,0c-1.33,0-2.16,0.35-2.16,1.38c0,0.76,0.54,1.27,1.38,1.27c1.71,0,1.95-1.14,1.95-2.43V11.03z"/>
		<path d="M30.38,8.09h1.12V6.22h0.6v1.87h1.43v0.56H32.1v3.9c0,0.67,0.14,1.05,0.72,1.05c0.18,0,0.43-0.01,0.62-0.07v0.53
			c-0.2,0.08-0.49,0.11-0.74,0.11c-0.77,0-1.2-0.38-1.2-1.34V8.66h-1.12V8.09z"/>
		<path d="M34.01,8.15c0.32-0.95,0.52-2.28,0.54-2.9h0.61c-0.06,0.9-0.37,2.28-0.62,2.9H34.01z"/>
		<path d="M36.53,12.43c0.2,0.78,0.76,1.25,1.7,1.25c1.07,0,1.5-0.49,1.5-1.16c0-0.68-0.29-1.02-1.63-1.34
			c-1.55-0.37-1.93-0.84-1.93-1.63c0-0.83,0.62-1.6,1.98-1.6c1.36,0,2,0.83,2.1,1.68h-0.6c-0.11-0.5-0.5-1.13-1.52-1.13
			c-1.04,0-1.34,0.52-1.34,1c0,0.55,0.29,0.83,1.48,1.12c1.69,0.41,2.11,0.96,2.11,1.86c0,1.09-0.89,1.76-2.15,1.76
			c-1.37,0-2.13-0.72-2.3-1.8H36.53z"/>
		<path class="st0" d="M45.13,14.09V8.66H44.1V8.09h1.03V7.24c0-1.01,0.29-2.11,1.63-2.11c0.18,0,0.44,0.04,0.59,0.08v0.58
			c-0.18-0.05-0.47-0.07-0.65-0.07c-0.71,0-0.97,0.5-0.97,1.55v0.83h1.31v0.56h-1.31v5.43H45.13z"/>
		<path class="st0" d="M52.84,11.08c0,1.67-0.92,3.15-2.71,3.15c-1.62,0-2.63-1.33-2.63-3.14c0-1.71,0.95-3.14,2.69-3.14
			C51.79,7.95,52.84,9.2,52.84,11.08z M48.14,11.09c0,1.43,0.77,2.58,2.04,2.58c1.3,0,2.03-1.07,2.03-2.58
			c0-1.41-0.72-2.58-2.05-2.58C48.79,8.51,48.14,9.65,48.14,11.09z"/>
		<path class="st0" d="M54.33,9.72c0-1.01-0.01-1.44-0.01-1.63h0.59c0.01,0.19,0.02,0.58,0.02,1.34c0.35-0.9,1.12-1.44,2.09-1.49
			V8.6c-1.25,0.08-2.09,0.95-2.09,2.38v3.12h-0.6V9.72z"/>
		<path d="M61.53,5.69h2.78c2.3,0,3.9,1.61,3.9,4.13c0,2.51-1.56,4.27-3.91,4.27h-2.77V5.69z M62.18,13.49h2.03
			c2.22,0,3.31-1.56,3.31-3.63c0-1.85-0.98-3.56-3.31-3.56h-2.03V13.49z"/>
		<path d="M69.87,5.25h0.6v1.16h-0.6V5.25z M69.87,8.09h0.6v6h-0.6V8.09z"/>
		<path d="M72.44,9.6c0-0.53,0-1.03-0.01-1.51h0.59c0.02,0.19,0.04,0.97,0.02,1.14c0.26-0.61,0.76-1.28,1.99-1.28
			c1.07,0,2.01,0.6,2.01,2.25v3.89h-0.6V10.3c0-1.07-0.44-1.76-1.49-1.76c-1.43,0-1.92,1.19-1.92,2.49v3.06h-0.6V9.6z"/>
		<path d="M79.02,9.6c0-0.53,0-1.03-0.01-1.51h0.59c0.02,0.19,0.04,0.97,0.02,1.14c0.26-0.61,0.76-1.28,1.99-1.28
			c1.07,0,2.01,0.6,2.01,2.25v3.89h-0.6V10.3c0-1.07-0.44-1.76-1.49-1.76c-1.43,0-1.92,1.19-1.92,2.49v3.06h-0.6V9.6z"/>
		<path d="M85.72,11.16c0.01,1.55,0.79,2.51,1.94,2.51c1.13,0,1.51-0.64,1.73-1.13h0.61c-0.25,0.79-0.89,1.69-2.36,1.69
			c-1.82,0-2.53-1.57-2.53-3.09c0-1.72,0.85-3.19,2.6-3.19c1.85,0,2.43,1.6,2.43,2.72c0,0.17,0,0.33-0.01,0.49H85.72z M89.53,10.64
			c-0.01-1.19-0.66-2.12-1.83-2.12c-1.24,0-1.8,0.86-1.93,2.12H89.53z"/>
		<path d="M91.62,9.72c0-1.01-0.01-1.44-0.01-1.63h0.59c0.01,0.19,0.02,0.58,0.02,1.34c0.35-0.9,1.12-1.44,2.09-1.49V8.6
			c-1.25,0.08-2.09,0.95-2.09,2.38v3.12h-0.6V9.72z"/>
	</g>
</g>
</svg>
